<svg viewBox="0 0 240 160" xmlns="http://www.w3.org/2000/svg" role="img" aria-label="Choose one item from the list">
  <rect width="240" height="160" rx="14" fill="#EAECF7"/>
  <!-- phone -->
  <rect x="82" y="8" width="76" height="144" rx="14" fill="#FFFFFF" stroke="#1E2A78" stroke-opacity="0.15" stroke-width="2"/>
  <!-- list rows -->
  <!-- highlighted row -->
  <rect x="90" y="24" width="60" height="22" rx="7" fill="#FFF4DC" stroke="#F4A300" stroke-width="3.5"/>
  <circle cx="101" cy="35" r="6" fill="#1E2A78" opacity="0.55"/>
  <rect x="112" y="32" width="32" height="6" rx="3" fill="#1E2A78" opacity="0.55"/>
  <!-- other rows -->
  <g>
    <rect x="90" y="54" width="60" height="20" rx="7" fill="#EAECF7"/>
    <circle cx="101" cy="64" r="6" fill="#1E2A78" opacity="0.18"/>
    <rect x="112" y="61" width="32" height="6" rx="3" fill="#1E2A78" opacity="0.18"/>
    <rect x="90" y="80" width="60" height="20" rx="7" fill="#EAECF7"/>
    <circle cx="101" cy="90" r="6" fill="#1E2A78" opacity="0.18"/>
    <rect x="112" y="87" width="32" height="6" rx="3" fill="#1E2A78" opacity="0.18"/>
    <rect x="90" y="106" width="60" height="20" rx="7" fill="#EAECF7"/>
    <circle cx="101" cy="116" r="6" fill="#1E2A78" opacity="0.18"/>
    <rect x="112" y="113" width="32" height="6" rx="3" fill="#1E2A78" opacity="0.18"/>
  </g>
  <!-- tap arrow to the highlighted row -->
  <g stroke="#F4A300" stroke-width="4" fill="none" stroke-linecap="round" stroke-linejoin="round">
    <path d="M176 60 L150 38"/>
    <polyline points="156,36 148,37 150,45"/>
  </g>
</svg>
