<svg viewBox="0 0 240 160" xmlns="http://www.w3.org/2000/svg" role="img" aria-label="Type the phone number">
  <rect width="240" height="160" rx="14" fill="#EAECF7"/>
  <!-- number field (highlighted) -->
  <rect x="22" y="12" width="196" height="30" rx="8" fill="#FFFFFF" stroke="#F4A300" stroke-width="3"/>
  <text x="36" y="33" font-family="sans-serif" font-size="18" font-weight="700" fill="#1A1A1A" letter-spacing="3">98765 4321</text>
  <!-- keypad -->
  <g font-family="sans-serif" font-size="16" font-weight="600" fill="#1A1A1A" text-anchor="middle">
    <rect x="30" y="52" width="44" height="22" rx="6" fill="#FFFFFF"/><text x="52" y="68">1</text>
    <rect x="98" y="52" width="44" height="22" rx="6" fill="#FFFFFF"/><text x="120" y="68">2</text>
    <rect x="166" y="52" width="44" height="22" rx="6" fill="#FFFFFF"/><text x="188" y="68">3</text>
    <rect x="30" y="78" width="44" height="22" rx="6" fill="#FFFFFF"/><text x="52" y="94">4</text>
    <rect x="98" y="78" width="44" height="22" rx="6" fill="#FFFFFF"/><text x="120" y="94">5</text>
    <rect x="166" y="78" width="44" height="22" rx="6" fill="#FFFFFF"/><text x="188" y="94">6</text>
    <rect x="30" y="104" width="44" height="22" rx="6" fill="#FFFFFF"/><text x="52" y="120">7</text>
    <rect x="98" y="104" width="44" height="22" rx="6" fill="#FFFFFF"/><text x="120" y="120">8</text>
    <rect x="166" y="104" width="44" height="22" rx="6" fill="#FFFFFF"/><text x="188" y="120">9</text>
    <rect x="98" y="130" width="44" height="22" rx="6" fill="#FFFFFF"/><text x="120" y="146">0</text>
    <rect x="166" y="130" width="44" height="22" rx="6" fill="#F4A300"/><text x="188" y="146" fill="#1A1A1A">⌫</text>
  </g>
</svg>
