<svg viewBox="0 0 240 160" xmlns="http://www.w3.org/2000/svg" role="img" aria-label="Enter your UPI PIN">
  <rect width="240" height="160" rx="14" fill="#EAECF7"/>
  <g transform="translate(108,12)">
    <rect x="0" y="12" width="24" height="18" rx="4" fill="#1E2A78"/>
    <path d="M5 12 V8 a7 7 0 0 1 14 0 V12" fill="none" stroke="#1E2A78" stroke-width="3"/>
    <circle cx="12" cy="20" r="2.5" fill="#F4A300"/>
  </g>
  <g fill="#1E2A78">
    <circle cx="96" cy="52" r="5"/>
    <circle cx="112" cy="52" r="5"/>
    <circle cx="128" cy="52" r="5"/>
    <circle cx="144" cy="52" r="5"/>
  </g>
  <g fill="#FFFFFF">
    <rect x="40" y="70" width="44" height="20" rx="6"/>
    <rect x="98" y="70" width="44" height="20" rx="6"/>
    <rect x="156" y="70" width="44" height="20" rx="6"/>
    <rect x="40" y="94" width="44" height="20" rx="6"/>
    <rect x="98" y="94" width="44" height="20" rx="6"/>
    <rect x="156" y="94" width="44" height="20" rx="6"/>
    <rect x="40" y="118" width="44" height="20" rx="6"/>
    <rect x="98" y="118" width="44" height="20" rx="6"/>
    <rect x="156" y="118" width="44" height="20" rx="6"/>
  </g>
</svg>
