<svg viewBox="0 0 240 160" xmlns="http://www.w3.org/2000/svg" role="img" aria-label="Choose a recharge plan">
  <rect width="240" height="160" rx="14" fill="#EAECF7"/>
  <!-- column header -->
  <g font-family="sans-serif" font-size="8" font-weight="600" fill="#1E2A78" opacity="0.55" text-anchor="middle">
    <text x="48" y="24">₹</text><text x="98" y="24">days</text><text x="143" y="24">data</text><text x="188" y="24">calls</text>
  </g>
  <!-- highlighted plan row -->
  <rect x="20" y="30" width="200" height="32" rx="9" fill="#FFFFFF" stroke="#F4A300" stroke-width="3"/>
  <text x="48" y="51" font-family="sans-serif" font-size="15" font-weight="700" fill="#1A1A1A" text-anchor="middle">239</text>
  <rect x="84" y="43" width="28" height="6" rx="3" fill="#1E2A78" opacity="0.4"/>
  <rect x="129" y="43" width="28" height="6" rx="3" fill="#1E2A78" opacity="0.4"/>
  <rect x="174" y="43" width="28" height="6" rx="3" fill="#1E2A78" opacity="0.4"/>
  <!-- other plan rows -->
  <g>
    <rect x="20" y="68" width="200" height="28" rx="9" fill="#FFFFFF"/>
    <rect x="36" y="79" width="24" height="6" rx="3" fill="#1E2A78" opacity="0.45"/><rect x="84" y="79" width="28" height="6" rx="3" fill="#1E2A78" opacity="0.18"/><rect x="129" y="79" width="28" height="6" rx="3" fill="#1E2A78" opacity="0.18"/><rect x="174" y="79" width="28" height="6" rx="3" fill="#1E2A78" opacity="0.18"/>
    <rect x="20" y="102" width="200" height="28" rx="9" fill="#FFFFFF"/>
    <rect x="36" y="113" width="24" height="6" rx="3" fill="#1E2A78" opacity="0.45"/><rect x="84" y="113" width="28" height="6" rx="3" fill="#1E2A78" opacity="0.18"/><rect x="129" y="113" width="28" height="6" rx="3" fill="#1E2A78" opacity="0.18"/><rect x="174" y="113" width="28" height="6" rx="3" fill="#1E2A78" opacity="0.18"/>
  </g>
</svg>
