<svg viewBox="0 0 240 160" xmlns="http://www.w3.org/2000/svg" role="img" aria-label="Scan a QR code">
  <rect width="240" height="160" rx="14" fill="#EAECF7"/>
  <rect x="80" y="22" width="80" height="80" rx="8" fill="#FFFFFF"/>
  <g fill="#1A1A1A">
    <rect x="88" y="30" width="18" height="18" rx="2"/>
    <rect x="92" y="34" width="10" height="10" rx="1" fill="#FFFFFF"/>
    <rect x="95" y="37" width="4" height="4"/>
    <rect x="134" y="30" width="18" height="18" rx="2"/>
    <rect x="138" y="34" width="10" height="10" rx="1" fill="#FFFFFF"/>
    <rect x="141" y="37" width="4" height="4"/>
    <rect x="88" y="76" width="18" height="18" rx="2"/>
    <rect x="92" y="80" width="10" height="10" rx="1" fill="#FFFFFF"/>
    <rect x="95" y="83" width="4" height="4"/>
    <rect x="116" y="32" width="4" height="4"/>
    <rect x="124" y="38" width="4" height="4"/>
    <rect x="116" y="46" width="4" height="4"/>
    <rect x="132" y="60" width="4" height="4"/>
    <rect x="120" y="66" width="4" height="4"/>
    <rect x="140" y="72" width="4" height="4"/>
    <rect x="116" y="84" width="4" height="4"/>
    <rect x="126" y="84" width="4" height="4"/>
  </g>
  <g stroke="#F4A300" stroke-width="5" fill="none" stroke-linecap="round" stroke-linejoin="round">
    <polyline points="72,44 72,24 92,24"/>
    <polyline points="148,24 168,24 168,44"/>
    <polyline points="72,80 72,100 92,100"/>
    <polyline points="148,100 168,100 168,80"/>
  </g>
  <rect x="70" y="118" width="100" height="9" rx="4" fill="#1E2A78" opacity="0.16"/>
  <rect x="70" y="133" width="64" height="8" rx="4" fill="#1E2A78" opacity="0.10"/>
</svg>
