<svg viewBox="0 0 240 160" xmlns="http://www.w3.org/2000/svg" role="img" aria-label="Check the name and the amount before paying">
  <rect width="240" height="160" rx="14" fill="#EAECF7"/>
  <rect x="22" y="12" width="196" height="136" rx="14" fill="#FFFFFF"/>
  <!-- Row 1: the name (highlighted) -->
  <rect x="32" y="26" width="176" height="40" rx="11" fill="none" stroke="#F4A300" stroke-width="3"/>
  <circle cx="52" cy="46" r="11" fill="#EAECF7"/>
  <circle cx="52" cy="42" r="4" fill="#1E2A78" opacity="0.5"/>
  <path d="M44 53 a8 7 0 0 1 16 0" fill="#1E2A78" opacity="0.5"/>
  <text x="72" y="42" font-family="sans-serif" font-size="9" font-weight="600" fill="#1A1A1A" opacity="0.45">Name</text>
  <rect x="72" y="48" width="96" height="9" rx="4.5" fill="#1E2A78" opacity="0.55"/>
  <circle cx="192" cy="46" r="9" fill="#1B7F5C"/>
  <path d="M187 46 l3 3 l6 -7" fill="none" stroke="#FFFFFF" stroke-width="2.5" stroke-linecap="round" stroke-linejoin="round"/>
  <!-- Row 2: the amount (highlighted) -->
  <rect x="32" y="78" width="176" height="56" rx="11" fill="none" stroke="#F4A300" stroke-width="3"/>
  <text x="44" y="98" font-family="sans-serif" font-size="10" font-weight="600" fill="#1A1A1A" opacity="0.45">Amount</text>
  <text x="44" y="124" font-family="sans-serif" font-size="26" font-weight="700" fill="#1A1A1A">₹ 240</text>
  <circle cx="192" cy="106" r="9" fill="#1B7F5C"/>
  <path d="M187 106 l3 3 l6 -7" fill="none" stroke="#FFFFFF" stroke-width="2.5" stroke-linecap="round" stroke-linejoin="round"/>
</svg>
