<svg viewBox="0 0 240 160" xmlns="http://www.w3.org/2000/svg" role="img" aria-label="Choose one of two options">
  <!-- option 1: scan a QR code -->
  <rect width="240" height="160" rx="14" fill="#EAECF7"/>
  <rect x="26" y="30" width="188" height="42" rx="13" fill="#FFFFFF" stroke="#F4A300" stroke-width="3"/>
  <g stroke="#1E2A78" stroke-width="3.5" fill="none" stroke-linecap="round" stroke-linejoin="round">
    <path d="M48 46 V40 H54"/>
    <path d="M66 40 H72 V46"/>
    <path d="M48 56 V62 H54"/>
    <path d="M66 62 H72 V56"/>
  </g>
  <g fill="#1E2A78">
    <rect x="52" y="44" width="6" height="6" rx="1"/>
    <rect x="62" y="44" width="6" height="6" rx="1"/>
    <rect x="52" y="53" width="6" height="6" rx="1"/>
    <rect x="62" y="54" width="3" height="3"/>
  </g>
  <rect x="92" y="44" width="98" height="7" rx="3.5" fill="#1E2A78" opacity="0.5"/>
  <rect x="92" y="55" width="64" height="5" rx="2.5" fill="#1E2A78" opacity="0.22"/>
  <!-- option 2: type the number -->
  <rect x="26" y="86" width="188" height="42" rx="13" fill="#FFFFFF" stroke="#F4A300" stroke-width="3"/>
  <g fill="#1E2A78">
    <circle cx="51" cy="98" r="2.6"/><circle cx="60" cy="98" r="2.6"/><circle cx="69" cy="98" r="2.6"/>
    <circle cx="51" cy="107" r="2.6"/><circle cx="60" cy="107" r="2.6"/><circle cx="69" cy="107" r="2.6"/>
    <circle cx="51" cy="116" r="2.6"/><circle cx="60" cy="116" r="2.6"/><circle cx="69" cy="116" r="2.6"/>
  </g>
  <rect x="92" y="100" width="98" height="7" rx="3.5" fill="#1E2A78" opacity="0.5"/>
  <rect x="92" y="111" width="64" height="5" rx="2.5" fill="#1E2A78" opacity="0.22"/>
</svg>
